<svg xmlns="http://www.w3.org/2000/svg" width="256" height="256" viewBox="0 0 100 100"><rect width="100" height="100" rx="20" fill="#4a90e2"></rect><path d="M48.72 55.32L48.72 55.32Q48.72 59.80 47.44 63.40Q46.16 67 43.80 69.56Q41.44 72.12 38.08 73.48Q34.72 74.84 30.56 74.84L30.56 74.84Q26.40 74.84 23.04 73.48Q19.68 72.12 17.28 69.56Q14.88 67 13.60 63.40Q12.32 59.80 12.32 55.32L12.32 55.32Q12.32 50.84 13.64 47.24Q14.96 43.64 17.36 41.08Q19.76 38.52 23.12 37.16Q26.48 35.80 30.56 35.80L30.56 35.80Q34.64 35.80 38 37.16Q41.36 38.52 43.72 41.08Q46.08 43.64 47.40 47.24Q48.72 50.84 48.72 55.32ZM30.56 41.08L30.56 41.08Q25.12 41.08 22 44.84Q18.88 48.60 18.88 55.32L18.88 55.32Q18.88 62.12 21.96 65.84Q25.04 69.56 30.56 69.56L30.56 69.56Q36.08 69.56 39.12 65.80Q42.16 62.04 42.16 55.32L42.16 55.32Q42.16 48.60 39.08 44.84Q36 41.08 30.56 41.08ZM57.04 25.16L85.84 25.16Q87.68 26.20 87.68 28.36L87.68 28.36Q87.68 29.96 86.80 31.72L86.80 31.72L66.72 74.12Q66.24 74.20 65.80 74.20Q65.36 74.20 64.88 74.20L64.88 74.20Q63.28 74.20 62.20 73.44Q61.12 72.68 61.12 71.32L61.12 71.32Q61.12 70.36 61.48 69.44Q61.84 68.52 62.48 67.32L62.48 67.32L80.56 30.60L55.28 30.60Q55.04 30.20 54.80 29.56Q54.56 28.92 54.56 28.04L54.56 28.04Q54.56 26.68 55.20 25.92Q55.84 25.16 57.04 25.16L57.04 25.16Z" fill="#fff"></path></svg>